<svg xmlns="http://www.w3.org/2000/svg" width="360" height="640" viewBox="0 0 360 640">
  <g id="Group_3" data-name="Group 3" transform="translate(0)">
    <g id="g4419">
      <path id="path4435" d="M0,320V0H360V640H0Z" fill="#caf5f1"/>
      <path id="path4433" d="M69.031,608.052C58.564,590.48,50,575.86,50,575.564s16.588-.657,36.863-.8l36.863-.262-17.863-30.96C96.038,526.512,88,512.232,88,511.805a32.618,32.618,0,0,1,3.119-5.844l3.119-5.069,21.516,35.8c11.834,19.692,21.728,36.574,21.988,37.516.286,1.039-7.142,14.321-18.874,33.75L99.52,640H88.061Zm138.791,2.195c9.723-16.365,18.317-30.99,19.1-32.5,1.324-2.563,1.848-2.746,7.845-2.746h6.426l-2.939-5.25-2.939-5.25,2.892-4.881c1.591-2.685,2.758-5.482,2.594-6.217s-7.048-13.041-15.3-27.348l-15-26.013-13.083-.021c-9.781-.015-13.087-.336-13.1-1.271s-40.231-71.593-41.882-73.588a2.94,2.94,0,0,0-1.866,0c-1.179.252,9.738,19.2,42.537,73.838,24.268,40.425,44.344,74.063,44.615,74.75.36.915-1.079,1.245-5.366,1.232l-5.857-.018L197.532,542c-16.775-29.157-20.331-34.329-20.357-29.607a2.362,2.362,0,0,1-1.152,1.6c-.631.39-4.649,6.375-8.929,13.3l-7.781,12.591L148.156,520.55C142.02,509.921,137,500.949,137,500.612s9.45-.612,21-.612,21-.195,21-.432c0-.6-39.99-69.905-40.825-70.753-.371-.377-10.35,15.254-22.175,34.736s-21.726,35.428-22,35.436-10.467-16.594-22.647-36.892L49.206,425.187l22.268-37.344L93.741,350.5l-44.808-.26-44.808-.26,16.309-27.24C42.249,286.3,45.945,279.521,44.89,277.856a5.688,5.688,0,0,1-.874-2.075c-.008-.4,5.366-.846,11.944-1l11.959-.281-4.209-7.235c-2.315-3.979-4.454-7.242-4.753-7.25s-2.549,3.13-5,6.975-4.685,6.995-4.964,7S38.637,257.575,26.6,237.5,4.438,201,4.092,201s-1.4,1.238-2.334,2.75L.053,206.5l-.027-3.25C.005,200.616.394,200,2.082,200H4.163l-2.082-3.368C.01,193.281,0,192.781,0,96.632V0H360V640H190.143ZM97.928,347.865c-.913-1.706-1.319-1.857-2.02-.75C94.543,349.27,94.828,350,97.035,350c1.768,0,1.885-.28.893-2.135ZM0,497.309c0-2.581.06-2.612,1.468-.75,1.889,2.5,1.9,3.441.032,3.441C.538,500,0,499.034,0,497.309Zm40.25-67.262A27.647,27.647,0,0,1,38,425.552c0-.3,2.262-.552,5.026-.552h5.026L46.6,427.75C43.21,434.185,42.714,434.364,40.25,430.046ZM.032,352.75C.011,350.958.523,350,1.5,350c1.893,0,1.9,1.085.032,3.559C.126,355.418.062,355.384.032,352.75Z" fill="#b7fbf5"/>
      <path id="path4431" d="M69.031,608.052C58.564,590.48,50,575.86,50,575.564s16.588-.657,36.863-.8l36.863-.262-17.863-30.96C96.038,526.512,88,512.232,88,511.805a32.618,32.618,0,0,1,3.119-5.844l3.119-5.069,21.516,35.8c11.834,19.692,21.728,36.574,21.988,37.516.286,1.039-7.142,14.321-18.874,33.75L99.52,640H88.061Zm139.113,1.7c9.9-16.638,18.683-31.309,19.518-32.6,1.482-2.3,1.928-1.67,18.532,26,9.358,15.594,18.135,30.265,19.5,32.6L268.19,640H190.143Zm73.776,26.88c1.146-1.854,9.914-16.517,19.486-32.586l17.4-29.216-22.454-37.4L273.9,500.02l-44.858-.26-44.858-.26,22.365-37.25L228.914,425H139.358l-22.429,36.992c-12.336,20.345-22.655,37-22.93,37s-10.467-16.6-22.647-36.9L49.206,425.187l22.268-37.344L93.741,350.5l-44.785-.26-44.785-.26,21.916-36.74c12.054-20.207,22.254-36.853,22.666-36.99s10.672,16.287,22.8,36.5L93.6,349.5h90.721L196.475,329c6.683-11.275,13.774-23.425,15.757-27l3.606-6.5-5.811-10-5.811-10-32.561-.264-32.561-.264L116.6,237.5,94.1,200.021l42.4-.261,42.4-.261-20.2-35.208c-11.108-19.365-20.46-35.227-20.782-35.25s-4.259,5.921-8.749,13.208c-20.507,33.281-36.759,60.039-57.377,94.47-12.259,20.471-22.517,37.233-22.8,37.25S38.637,257.575,26.6,237.5,4.438,201,4.092,201s-1.4,1.238-2.334,2.75L.053,206.5l-.027-3.25C.005,200.616.394,200,2.082,200H4.163l-2.082-3.368C.079,193.392,0,191.964,0,159.149V125.035l24.719-.267,24.719-.267,8.919-15c4.905-8.25,14.7-24.9,21.777-37l12.858-22-28.1-.5-28.1-.5L29.142,36.205,21.5,22.911l-2,2.579c-1.1,1.418-4.966,7.4-8.591,13.295-4.653,7.565-7.226,10.81-8.75,11.035L0,50.139V0H360V574.959l-20.409.27-20.409.27,19.367,32.25L357.916,640h-78.08Zm69.914-137.472c-.183-.463-8.658-15.3-18.833-32.967-14.445-25.084-18.719-31.79-19.5-30.594-8.212,12.571-15.094,23.452-22.227,35.146-4.778,7.833-9.014,13.908-9.411,13.5-.845-.868-32.854-56.142-33.583-57.992-.318-.806.433-1.25,2.115-1.25,1.434,0,2.607-.25,2.607-.556s-2.537-4.866-5.637-10.133c-5.419-9.207-5.578-9.679-4.124-12.194.832-1.439,7.026-12.233,13.765-23.987l12.252-21.37-1.612-3.38L266.032,350H224.981c-38.805,0-41,.1-40.066,1.75.542.962,10.641,17.725,22.442,37.25s31.685,52.487,44.187,73.25L274.275,500h38.946c21.42,0,38.8-.379,38.612-.842ZM148.151,520.542C142.018,509.917,137,500.949,137,500.612S147.35,500,160,500s23,.275,23,.611c0,.663-6.544,11.617-17.045,28.532L159.3,539.859ZM0,497.309c0-2.581.06-2.612,1.468-.75,1.889,2.5,1.9,3.441.032,3.441C.538,500,0,499.034,0,497.309Zm40.25-67.262A27.647,27.647,0,0,1,38,425.552c0-.3,2.262-.552,5.026-.552h5.026L46.6,427.75C43.21,434.185,42.714,434.364,40.25,430.046ZM.032,352.75C.011,350.958.523,350,1.5,350c1.893,0,1.9,1.085.032,3.559C.126,355.418.062,355.384.032,352.75Z" fill="#a7fcf5"/>
      <path id="path4429" d="M69.031,608.052C58.564,590.48,50,575.86,50,575.564s16.588-.657,36.863-.8l36.863-.262-17.863-30.96C96.038,526.512,88,512.232,88,511.805a32.618,32.618,0,0,1,3.119-5.844l3.119-5.069,21.516,35.8c11.834,19.692,21.728,36.574,21.988,37.516.286,1.039-7.142,14.321-18.874,33.75L99.52,640H88.061Zm139.113,1.7c9.9-16.638,18.683-31.309,19.518-32.6,1.482-2.3,1.928-1.67,18.532,26,9.358,15.594,18.135,30.265,19.5,32.6L268.19,640H190.143Zm73.776,26.88c1.146-1.854,9.914-16.517,19.486-32.586l17.4-29.216-22.454-37.4L273.9,500.02l-44.858-.26-44.858-.26,22.365-37.25L228.914,425H139.358l-22.429,36.992c-12.336,20.345-22.655,37-22.93,37s-10.467-16.6-22.647-36.9L49.206,425.187l22.268-37.344L93.741,350.5l-44.785-.26-44.785-.26,21.916-36.74c12.054-20.207,22.254-36.853,22.666-36.99s10.672,16.287,22.8,36.5L93.6,349.5h90.851l22.066-37,22.066-37,44.787-.26c28.681-.167,44.668-.613,44.457-1.24-.624-1.854-43.33-72.937-43.83-72.954-.275-.009-3.573,5.04-7.33,11.219-16.779,27.6-21.942,35.685-22.556,35.306-.361-.223-6.723-11-14.136-23.953L216.5,200.07l-15.75-.035c-8.663-.019-15.75.158-15.75.394s9.9,16.918,22,37.071,22,36.835,22,37.071-20.225.429-44.945.429H139.111L116.6,237.5,94.088,200h89.672l9.3-15.75c5.114-8.663,11.468-19.412,14.12-23.889S212,151.715,212,151.095s-3.146-6.633-6.992-13.361L198.016,125.5l27.441-.5,27.441-.5-5.764-10.019-5.764-10.019,10.764-17.981c5.92-9.89,10.767-18.431,10.771-18.981s-2.149-4.6-4.784-9l-4.79-8-34.416-.239L184.5,50.021,181,55.869c-1.925,3.216-11.981,19.749-22.346,36.739C137.6,127.117,68.607,241.575,57,261.246c-4.125,6.991-7.729,12.721-8.008,12.733S38.637,257.575,26.6,237.5,4.438,201,4.092,201s-1.4,1.238-2.334,2.75L.053,206.5l-.027-3.25C.005,200.616.394,200,2.082,200H4.163l-2.082-3.368C.079,193.392,0,191.964,0,159.149V125.035l24.7-.267,24.7-.267L71.7,87.328,94.016,50.156,79.4,25.828C71.368,12.448,64.588,1.163,64.338.75S130.509,0,211.941,0H360V425H318.8l2.23-3.75c1.227-2.062,7.132-12.129,13.124-22.37l10.894-18.62-8.525-14.687c-4.689-8.078-8.525-14.886-8.525-15.13s6.75-.442,15-.442,15-.175,15-.39c0-.342-39.881-69.708-40.458-70.369-.124-.142-6.47,9.983-14.1,22.5S286.127,330.125,281.931,337l-7.63,12.5-45.057.5-45.057.5,22.316,37c12.274,20.35,32.544,53.987,45.044,74.75L274.275,500H360v74.959l-20.409.27-20.409.27,19.367,32.25L357.916,640h-78.08ZM129,49.46c0-.4-15.552-28.021-16.427-29.17C112.4,20.067,95.738,47.7,95.167,49.154c-.183.465,7.354.846,16.75.846S129,49.757,129,49.46Zm19.151,471.082C142.018,509.917,137,500.949,137,500.612S147.35,500,160,500s23,.275,23,.611c0,.663-6.544,11.617-17.045,28.532L159.3,539.859ZM0,497.309c0-2.581.06-2.612,1.468-.75,1.889,2.5,1.9,3.441.032,3.441C.538,500,0,499.034,0,497.309Zm40.25-67.262A27.647,27.647,0,0,1,38,425.552c0-.3,2.262-.552,5.026-.552h5.026L46.6,427.75C43.21,434.185,42.714,434.364,40.25,430.046ZM.032,352.75C.011,350.958.523,350,1.5,350c1.893,0,1.9,1.085.032,3.559C.126,355.418.062,355.384.032,352.75ZM0,25V0H33.918L18.9,25C7.531,43.929,3.412,50,1.942,50,.071,50,0,49.084,0,25Z" fill="#b5e8e4"/>
      <path id="path4427" d="M302.75,628.068c-3.712-6.525-6.75-12.33-6.75-12.9s5.119-9.9,11.376-20.735l11.376-19.7-22.42-37.348-22.42-37.348-22.638-.269-22.638-.269-10.7-18.5-10.7-18.5,2.946-5.311c1.62-2.921,6.488-11.358,10.817-18.75L228.871,425l-40.186-.008-40.186-.008-2.187-3.831-2.187-3.831,5.022-8.912c2.762-4.9,6.784-12.009,8.937-15.794A54.463,54.463,0,0,0,162,384.928c0-.444-4.1-7.89-9.1-16.549s-9.325-16.327-9.6-17.041c-.4-1.034,3.748-1.353,20.329-1.569l20.827-.271,22.065-37,22.065-37,44.787-.26c28.681-.167,44.668-.613,44.457-1.24-.624-1.854-43.33-72.937-43.83-72.954-.275-.009-3.573,5.04-7.33,11.219-16.779,27.6-21.942,35.685-22.556,35.306-.361-.223-6.723-11-14.136-23.953L216.5,200.07l-15.75-.035c-8.663-.019-15.75.158-15.75.394s9.9,16.918,22,37.071,22,36.835,22,37.071-20.225.429-44.945.429H139.111L116.6,237.5,94.088,200h89.672l9.3-15.75c5.114-8.663,11.468-19.412,14.12-23.889S212,151.715,212,151.095s-3.146-6.633-6.992-13.361L198.016,125.5l27.441-.5,27.441-.5-5.764-10.019-5.764-10.019,10.764-17.981c5.92-9.89,10.767-18.431,10.771-18.981s-2.149-4.6-4.784-9l-4.79-8-34.416-.225L184.5,50.051l-4.07,6.725c-2.239,3.7-12.16,20-22.048,36.225s-26.474,43.675-36.859,61-22.459,37.289-26.831,44.365l-7.949,12.865-3.111-5.615L80.522,200H37.207l-8.117-14.027-8.117-14.027,2.264-4.22A46.372,46.372,0,0,1,26,163a32.574,32.574,0,0,0,2.3-3.92l1.8-3.417-8.55-14.807c-4.7-8.144-8.55-15.033-8.55-15.31s8.188-.626,18.2-.776l18.2-.273L71.7,87.328,94.016,50.156,79.4,25.828C71.368,12.448,64.588,1.163,64.338.75S130.509,0,211.941,0H360V425H318.8l2.23-3.75c1.227-2.062,7.132-12.129,13.124-22.37l10.894-18.62-8.525-14.687c-4.689-8.078-8.525-14.886-8.525-15.13s6.75-.442,15-.442,15-.175,15-.39c0-.342-39.881-69.708-40.458-70.369-.124-.142-6.47,9.983-14.1,22.5S286.127,330.125,281.931,337l-7.63,12.5-45.057.5-45.057.5,22.316,37c12.274,20.35,32.544,53.987,45.044,74.75L274.275,500H360v74.959l-20.409.27-20.409.27,19.367,32.25L357.916,640l-24.208-.034-24.208-.034-6.75-11.864ZM129,49.46c0-.4-15.552-28.021-16.427-29.17C112.4,20.067,95.738,47.7,95.167,49.154c-.183.465,7.354.846,16.75.846S129,49.757,129,49.46ZM0,25V0H33.918L18.9,25C7.531,43.929,3.412,50,1.942,50,.071,50,0,49.084,0,25Z" fill="#a7eae4"/>
      <path id="path4425" d="M335.065,566.113l-5.086-8.887,6.14-10.609,6.14-10.609-9.879-17.157c-5.433-9.436-10.029-17.538-10.212-18s8.254-.847,18.75-.847H360v75H340.15ZM320.226,422.75c.8-1.237,6.709-11.312,13.13-22.387l11.674-20.137-8.515-14.67c-4.683-8.069-8.515-14.87-8.515-15.113s6.75-.442,15-.442,15-.175,15-.39c0-.342-39.881-69.708-40.458-70.369-.124-.142-6.47,9.983-14.1,22.5s-17.294,28.355-21.47,35.2-8.081,12.6-8.678,12.8-2.65-2.247-4.562-5.437c-4.555-7.6-39.131-67.469-39.563-68.5-.183-.439,19.767-.8,44.333-.8,29.037,0,44.55-.346,44.333-.99-.627-1.861-43.332-72.948-43.833-72.964-.275-.009-3.573,5.04-7.33,11.219-16.779,27.6-21.942,35.685-22.556,35.306-.361-.223-6.723-11-14.136-23.953L216.5,200.07l-15.75-.035c-8.663-.019-15.75-.286-15.75-.593,0-.906,22.663-40.61,25.637-44.915A7.588,7.588,0,0,0,212,151.261c0-.712-3.146-6.8-6.992-13.527L198.016,125.5l27.441-.5,27.441-.5-5.764-10.019-5.764-10.019,10.764-17.981c5.92-9.89,10.767-18.431,10.771-18.981s-2.149-4.6-4.784-9l-4.79-8-34.416-.239L184.5,50.021,181,55.863c-1.925,3.213-10.42,17.124-18.878,30.913l-15.378,25.072L135.737,92.674c-6.054-10.546-14.084-24.461-17.844-30.924L111.056,50h8.972c4.935,0,8.972-.243,8.972-.54,0-.385-15.3-27.577-16.385-29.128-.065-.093-4.168,6.315-9.116,14.239s-9.273,14.412-9.61,14.419-6.6-10-13.92-22.239S66.01,3.487,65.215,2.25L63.77,0H360V425H318.77ZM95,150.439c-7.425-12.923-13.65-23.933-13.833-24.468-.211-.614,10.185-.972,28.25-.972,15.721,0,28.583.288,28.583.64,0,.761-25.79,43.442-27.984,46.312C108.586,173.822,107.73,172.6,95,150.439Z" fill="#93f3ea"/>
      <path id="path4423" d="M335.065,566.113l-5.086-8.887,6.14-10.609,6.14-10.609-9.879-17.157c-5.433-9.436-10.029-17.538-10.212-18s8.254-.847,18.75-.847H360v75H340.15Zm3.621-173.863c10.78-18.013,19.986-33.177,20.457-33.7S360,372.511,360,391.3V425H319.086Zm-69.986-48c-4.54-7.578-39.1-67.425-39.533-68.452-.183-.439,19.729-.8,44.25-.8s44.583.262,44.583.582C318,276.809,273.673,350,272.929,350,272.5,350,270.594,347.413,268.7,344.25Zm71.058-35.813L320.016,275.5l19.637-.272c10.8-.149,19.8-.106,20.006.1s.25,15.147.1,33.209l-.264,32.84ZM185.167,199.01c.635-1.885,43.335-72.948,43.833-72.948s43.2,71.063,43.833,72.948c.217.644-15.127.99-43.833.99S184.95,199.653,185.167,199.01Zm89.833.522c0-.257,8.7-14.995,19.332-32.75s20.39-34.195,21.684-36.532,2.607-4.236,2.918-4.218,9.678,15.281,20.816,33.919C354.369,184.416,360,194.695,360,196.919V200H317.5C294.125,200,275,199.79,275,199.532ZM95,150.439c-7.425-12.923-13.65-23.933-13.833-24.468-.211-.614,10.185-.972,28.25-.972,15.721,0,28.583.288,28.583.64,0,.761-25.79,43.442-27.984,46.312C108.586,173.822,107.73,172.6,95,150.439ZM296.6,87.5,274.088,50H360v75H319.111ZM188.665,43.25c2.069-3.713,4.679-8.111,5.8-9.775S200.55,23.61,205.5,15.249l9-15.2L229.111.024,243.721,0l14.639,24.419C266.412,37.85,273,49.1,273,49.419S253.178,50,228.951,50H184.9ZM79.5,25.456C71.8,12.538,65.35,1.526,65.167.985,64.953.353,75.427,0,94.371,0h29.538l-14.7,24.5C101.12,37.975,94.278,48.987,94,48.971S87.2,38.373,79.5,25.456Z" fill="#94e5dd"/>
      <path id="path4421" d="M314.637,177.926c-7.015-12.141-12.616-22.618-12.446-23.283.479-1.872,16.181-28.647,16.779-28.611.291.018,9.642,15.281,20.78,33.919C354.369,184.416,360,194.695,360,196.919V200H327.393ZM296.6,87.5,274.088,50H360v75H319.111ZM240.255,48.75c-3.095-3.909-26.841-46.492-26.5-47.519C214.057.33,218.132,0,228.944,0h14.777l14.639,24.419C266.412,37.85,273,49.1,273,49.419S265.855,50,257.122,50C245.615,50,240.973,49.656,240.255,48.75Z" fill="#78e7dc"/>
    </g>
    <g id="Group_2" data-name="Group 2">
      <rect id="Rectangle_2" data-name="Rectangle 2" width="360" height="640" fill="#a665f2" opacity="0.4"/>
      <path id="Path_1" data-name="Path 1" d="M25.32-32.1a6.666,6.666,0,0,0-3.09-2.13,11.074,11.074,0,0,0-3.69-.69,9.669,9.669,0,0,0-2.1.24,8.048,8.048,0,0,0-2.04.75,4.447,4.447,0,0,0-1.56,1.35,3.418,3.418,0,0,0-.6,2.04,3.382,3.382,0,0,0,1.44,2.94,13.636,13.636,0,0,0,3.63,1.74q2.19.72,4.71,1.44a19.407,19.407,0,0,1,4.71,2.04,11.151,11.151,0,0,1,3.63,3.54A10.79,10.79,0,0,1,31.8-12.9a13.657,13.657,0,0,1-1.32,6.18,12.541,12.541,0,0,1-3.57,4.38A15.191,15.191,0,0,1,21.69.24a22.935,22.935,0,0,1-6.27.84A22.746,22.746,0,0,1,7.74-.18a19.245,19.245,0,0,1-6.6-4.08L7.8-11.58a9.722,9.722,0,0,0,3.63,2.97,10.362,10.362,0,0,0,4.53,1.05,10.249,10.249,0,0,0,2.31-.27,7.524,7.524,0,0,0,2.1-.81,4.529,4.529,0,0,0,1.5-1.38A3.441,3.441,0,0,0,22.44-12a3.592,3.592,0,0,0-1.47-3.03,13.548,13.548,0,0,0-3.69-1.89q-2.22-.78-4.8-1.56a21.556,21.556,0,0,1-4.8-2.1,11.568,11.568,0,0,1-3.69-3.48,9.957,9.957,0,0,1-1.47-5.7,12.761,12.761,0,0,1,1.35-6,13.017,13.017,0,0,1,3.6-4.32,15.65,15.65,0,0,1,5.19-2.61,21.244,21.244,0,0,1,6.06-.87,23.827,23.827,0,0,1,6.96,1.02,16.053,16.053,0,0,1,6.06,3.42Zm13.14,2.94h8.28v3.84h.12a9.944,9.944,0,0,1,1.41-1.59,10.668,10.668,0,0,1,2.04-1.47,12.693,12.693,0,0,1,2.55-1.08,10.046,10.046,0,0,1,2.94-.42,15.029,15.029,0,0,1,5.88,1.11,13.112,13.112,0,0,1,4.53,3.12,13.912,13.912,0,0,1,2.91,4.77,17.358,17.358,0,0,1,1.02,6.06,18.377,18.377,0,0,1-.93,5.85,16.1,16.1,0,0,1-2.64,4.95A12.9,12.9,0,0,1,62.4-.57,11.833,11.833,0,0,1,56.82.72a15.464,15.464,0,0,1-5.25-.87,8.4,8.4,0,0,1-3.99-2.97h-.12v16.8h-9Zm8.28,14.58a7.545,7.545,0,0,0,1.89,5.34A6.88,6.88,0,0,0,53.94-7.2a6.88,6.88,0,0,0,5.31-2.04,7.545,7.545,0,0,0,1.89-5.34,7.545,7.545,0,0,0-1.89-5.34,6.88,6.88,0,0,0-5.31-2.04,6.88,6.88,0,0,0-5.31,2.04A7.545,7.545,0,0,0,46.74-14.58Zm28.8-30.78h9V0h-9Zm33.78,41.7h-.12A8.464,8.464,0,0,1,105.21-.3,13.716,13.716,0,0,1,99.96.72,13.536,13.536,0,0,1,96.03.15,9.918,9.918,0,0,1,92.7-1.56a8.258,8.258,0,0,1-2.28-2.82,8.613,8.613,0,0,1-.84-3.9,8.942,8.942,0,0,1,.93-4.26,8.322,8.322,0,0,1,2.52-2.88,12.514,12.514,0,0,1,3.63-1.77,26.5,26.5,0,0,1,4.23-.93,40.4,40.4,0,0,1,4.38-.36q2.19-.06,4.05-.06a4.68,4.68,0,0,0-1.71-3.81,6.167,6.167,0,0,0-4.05-1.41,8.809,8.809,0,0,0-4.05.93,11.063,11.063,0,0,0-3.27,2.55l-4.8-4.92a16.516,16.516,0,0,1,5.88-3.51,21.015,21.015,0,0,1,6.96-1.17,18.2,18.2,0,0,1,6.51.99,9.467,9.467,0,0,1,4.08,2.91A11.213,11.213,0,0,1,117-21.27a30.91,30.91,0,0,1,.6,6.45V0h-8.28Zm-2.22-9.12q-1.02,0-2.55.09a12.921,12.921,0,0,0-2.94.51,6.542,6.542,0,0,0-2.4,1.26,2.9,2.9,0,0,0-.99,2.34,2.575,2.575,0,0,0,1.38,2.4,5.773,5.773,0,0,0,2.88.78,9.031,9.031,0,0,0,2.55-.36,7.605,7.605,0,0,0,2.19-1.02,4.931,4.931,0,0,0,1.53-1.68,4.841,4.841,0,0,0,.57-2.4v-1.92Zm32.64-7.8a6.372,6.372,0,0,0-5.22-2.46,4.91,4.91,0,0,0-2.22.54,1.909,1.909,0,0,0-1.08,1.86,1.673,1.673,0,0,0,1.11,1.59,14.681,14.681,0,0,0,2.82.9q1.71.39,3.66.84a13.752,13.752,0,0,1,3.66,1.41,8.192,8.192,0,0,1,2.82,2.61,7.785,7.785,0,0,1,1.11,4.41,8.167,8.167,0,0,1-1.23,4.65,9.434,9.434,0,0,1-3.15,2.94A13.547,13.547,0,0,1,137.7.27a25.679,25.679,0,0,1-4.74.45,22.929,22.929,0,0,1-6.18-.87,11.546,11.546,0,0,1-5.28-3.09l5.46-6.06a9.057,9.057,0,0,0,2.79,2.37,7.521,7.521,0,0,0,3.57.81,8.342,8.342,0,0,0,2.82-.45,1.66,1.66,0,0,0,1.26-1.65,1.828,1.828,0,0,0-1.11-1.71,12.155,12.155,0,0,0-2.82-.96q-1.71-.39-3.66-.84a15.122,15.122,0,0,1-3.66-1.35,7.658,7.658,0,0,1-2.82-2.55,7.785,7.785,0,0,1-1.11-4.41,8.892,8.892,0,0,1,1.05-4.44,9.225,9.225,0,0,1,2.76-3.06,11.941,11.941,0,0,1,3.93-1.77,18.025,18.025,0,0,1,4.5-.57,21.11,21.11,0,0,1,5.82.84,10.794,10.794,0,0,1,4.98,3Zm20.28-24.78V-25.2h.12a5.408,5.408,0,0,1,1.02-1.68,7.98,7.98,0,0,1,1.74-1.5,9.475,9.475,0,0,1,2.4-1.08,10.261,10.261,0,0,1,3-.42,12.4,12.4,0,0,1,5.52,1.05,7.982,7.982,0,0,1,3.27,2.91,11.77,11.77,0,0,1,1.59,4.38,33.261,33.261,0,0,1,.42,5.46V0h-9V-14.28q0-1.26-.09-2.61a8.234,8.234,0,0,0-.54-2.49,4.3,4.3,0,0,0-1.38-1.86,4.287,4.287,0,0,0-2.67-.72,5.556,5.556,0,0,0-2.82.63,4.294,4.294,0,0,0-1.65,1.68,6.867,6.867,0,0,0-.75,2.37,20.422,20.422,0,0,0-.18,2.76V0h-9V-45.36Z" transform="translate(89 298)" fill="#fff"/>
      <path id="Path_2" data-name="Path 2" d="M3.48-3.93A5.079,5.079,0,0,0,5.505-1.92a5.96,5.96,0,0,0,2.835.66,5.667,5.667,0,0,0,1.86-.3,4.741,4.741,0,0,0,1.515-.84A3.949,3.949,0,0,0,12.735-3.7,3.868,3.868,0,0,0,13.11-5.43a3.314,3.314,0,0,0-.465-1.83A3.725,3.725,0,0,0,11.4-8.445,9.14,9.14,0,0,0,9.645-9.24q-.975-.33-2.01-.66t-2.01-.75a6.735,6.735,0,0,1-1.755-1.1,4.883,4.883,0,0,1-1.245-1.7,6.066,6.066,0,0,1-.465-2.52,5.465,5.465,0,0,1,.555-2.505,5.35,5.35,0,0,1,1.5-1.83,6.676,6.676,0,0,1,2.175-1.11,8.8,8.8,0,0,1,2.58-.375,8.346,8.346,0,0,1,3.225.615A6.128,6.128,0,0,1,14.76-19.11l-1.71,1.23A5.02,5.02,0,0,0,11.3-19.455,5.087,5.087,0,0,0,8.91-19.98a6.474,6.474,0,0,0-1.83.255,4.573,4.573,0,0,0-1.515.75A3.694,3.694,0,0,0,4.53-17.73a3.788,3.788,0,0,0-.39,1.77,3.419,3.419,0,0,0,.81,2.445,5.711,5.711,0,0,0,2.025,1.35,21.5,21.5,0,0,0,2.64.87,12.781,12.781,0,0,1,2.64,1.005A5.7,5.7,0,0,1,14.28-8.535a5.229,5.229,0,0,1,.81,3.105,5.759,5.759,0,0,1-.54,2.55A5.609,5.609,0,0,1,13.1-1,6.292,6.292,0,0,1,10.98.15,8.005,8.005,0,0,1,8.49.54,9.993,9.993,0,0,1,4.62-.2,7.083,7.083,0,0,1,1.59-2.67ZM30.69-2.04A6.48,6.48,0,0,1,28.38-.225,6.675,6.675,0,0,1,25.59.36a7.845,7.845,0,0,1-2.94-.54,6.676,6.676,0,0,1-2.31-1.515A6.985,6.985,0,0,1,18.84-4,7.73,7.73,0,0,1,18.3-6.93a7.73,7.73,0,0,1,.54-2.925,6.985,6.985,0,0,1,1.5-2.31,6.676,6.676,0,0,1,2.31-1.515,7.845,7.845,0,0,1,2.94-.54,6.435,6.435,0,0,1,2.835.63,7.452,7.452,0,0,1,2.325,1.77l-1.44,1.08A6.235,6.235,0,0,0,27.6-12.1a4.213,4.213,0,0,0-2.01-.495,5.59,5.59,0,0,0-2.28.45,5.289,5.289,0,0,0-1.74,1.215,5.155,5.155,0,0,0-1.095,1.8,6.423,6.423,0,0,0-.375,2.2,6.423,6.423,0,0,0,.375,2.205,5.155,5.155,0,0,0,1.095,1.8A5.289,5.289,0,0,0,23.31-1.71a5.59,5.59,0,0,0,2.28.45,4.221,4.221,0,0,0,2.085-.525A5.45,5.45,0,0,0,29.31-3.18Zm2.82-7.92q0-.39-.03-.945t-.045-1.125q-.015-.57-.045-1.065t-.03-.765h1.8q.03.78.045,1.5a4.712,4.712,0,0,0,.075.93,6.15,6.15,0,0,1,1.77-2.01,4.389,4.389,0,0,1,2.64-.78,3.016,3.016,0,0,1,.525.045q.255.045.525.1l-.21,1.77a2.18,2.18,0,0,0-.69-.12,5.013,5.013,0,0,0-2.025.375A3.805,3.805,0,0,0,36.4-11.01a4.335,4.335,0,0,0-.825,1.545,6.5,6.5,0,0,0-.27,1.905V0h-1.8ZM55.2-2.61A6.069,6.069,0,0,1,52.605-.33,8.256,8.256,0,0,1,49.2.36a7.391,7.391,0,0,1-2.88-.54A6.494,6.494,0,0,1,44.1-1.695,6.655,6.655,0,0,1,42.675-4a8.443,8.443,0,0,1-.5-2.955,7.925,7.925,0,0,1,.51-2.88,6.874,6.874,0,0,1,1.44-2.3,6.758,6.758,0,0,1,2.19-1.53,6.847,6.847,0,0,1,2.79-.555,6.687,6.687,0,0,1,2.805.555,6.141,6.141,0,0,1,2.04,1.47A6.223,6.223,0,0,1,55.2-10.11a6.968,6.968,0,0,1,.42,2.37v1.26H43.98a6.158,6.158,0,0,0,.225,1.455A5.15,5.15,0,0,0,45.03-3.3a5.227,5.227,0,0,0,1.6,1.44,5.009,5.009,0,0,0,2.6.6,5.793,5.793,0,0,0,2.67-.66,4.811,4.811,0,0,0,1.98-1.8ZM53.82-8.1a4.091,4.091,0,0,0-.375-1.74,4.652,4.652,0,0,0-1.02-1.425,4.825,4.825,0,0,0-1.53-.975,4.928,4.928,0,0,0-1.875-.36,4.591,4.591,0,0,0-2.445.6,5.351,5.351,0,0,0-1.545,1.38A5.486,5.486,0,0,0,44.22-9.1a4.016,4.016,0,0,0-.24,1ZM71.88-2.61a6.069,6.069,0,0,1-2.6,2.28,8.256,8.256,0,0,1-3.4.69A7.391,7.391,0,0,1,63-.18a6.494,6.494,0,0,1-2.22-1.515A6.655,6.655,0,0,1,59.355-4a8.443,8.443,0,0,1-.5-2.955,7.925,7.925,0,0,1,.51-2.88,6.874,6.874,0,0,1,1.44-2.3A6.758,6.758,0,0,1,63-13.665a6.847,6.847,0,0,1,2.79-.555,6.687,6.687,0,0,1,2.805.555,6.141,6.141,0,0,1,2.04,1.47A6.223,6.223,0,0,1,71.88-10.11a6.969,6.969,0,0,1,.42,2.37v1.26H60.66a6.158,6.158,0,0,0,.225,1.455A5.15,5.15,0,0,0,61.71-3.3a5.227,5.227,0,0,0,1.6,1.44,5.009,5.009,0,0,0,2.6.6,5.793,5.793,0,0,0,2.67-.66,4.811,4.811,0,0,0,1.98-1.8ZM70.5-8.1a4.091,4.091,0,0,0-.375-1.74,4.652,4.652,0,0,0-1.02-1.425,4.825,4.825,0,0,0-1.53-.975A4.928,4.928,0,0,0,65.7-12.6a4.591,4.591,0,0,0-2.445.6,5.351,5.351,0,0,0-1.545,1.38A5.486,5.486,0,0,0,60.9-9.1a4.016,4.016,0,0,0-.24,1Zm5.82-1.86q0-.39-.03-.945t-.045-1.125Q76.23-12.6,76.2-13.1t-.03-.765h1.8q.03.78.045,1.5a4.712,4.712,0,0,0,.075.93h.09a4.857,4.857,0,0,1,1.8-1.965,5.245,5.245,0,0,1,2.94-.825,5.911,5.911,0,0,1,2.64.51,4.249,4.249,0,0,1,1.605,1.335,5.022,5.022,0,0,1,.81,1.9A10.856,10.856,0,0,1,88.2-8.25V0H86.4V-8.16A8.8,8.8,0,0,0,86.25-9.8a4.331,4.331,0,0,0-.525-1.425,2.745,2.745,0,0,0-1.05-1.005A3.6,3.6,0,0,0,82.92-12.6a5.116,5.116,0,0,0-1.875.345,4.034,4.034,0,0,0-1.53,1.05,5.086,5.086,0,0,0-1.02,1.77A7.548,7.548,0,0,0,78.12-6.93V0h-1.8Z" transform="translate(180 330)" fill="#7b62d1"/>
    </g>
  </g>
</svg>
